<?xml version="1.0" encoding="utf-8"?>
<!-- Generator: Adobe Illustrator 25.2.1, SVG Export Plug-In . SVG Version: 6.00 Build 0)  -->
<svg version="1.1" id="图层_1" xmlns="http://www.w3.org/2000/svg" xmlns:xlink="http://www.w3.org/1999/xlink" x="0px" y="0px"
	 viewBox="0 0 17 17" style="enable-background:new 0 0 17 17;" xml:space="preserve">
<style type="text/css">
	.st0{fill:#00AEFF;}
</style>
<g>
	<path class="st0" d="M7.2,5.5c0.2,0,0.4,0,0.6-0.1L6.9,4.6C6.6,4.4,6.4,4,6.4,3.6c0-0.4,0.1-0.8,0.3-1.1C7,2.2,7.4,2,7.9,2
		c0.3,0,0.7,0.1,1,0.3l1,0.8c0-0.1,0-0.2,0-0.2c0-1.5-1.2-2.6-2.6-2.6c-1.5,0-2.6,1.2-2.6,2.6C4.5,4.3,5.7,5.5,7.2,5.5z"/>
	<path class="st0" d="M13.1,4.3c-0.5,0-1,0.1-1.4,0.3c-0.3,0.1-0.5,0.3-0.8,0.5L8.3,3C8.2,2.9,8,2.8,7.9,2.8c-0.2,0-0.4,0.1-0.5,0.2
		C7.1,3.3,7.2,3.8,7.5,4l2.7,2.2C10,6.4,9.9,6.7,9.8,7c0,0.2-0.1,0.3-0.1,0.5l1.6-0.9c0.3-0.2,0.6-0.2,0.9-0.2c0.7,0,1.4,0.4,1.7,1
		c0.5,0.9,0.2,2.1-0.8,2.6l-1.4,0.8c0.4,0.2,0.8,0.3,1.3,0.3c1.9,0,3.4-1.5,3.4-3.4S15,4.3,13.1,4.3z"/>
	<path class="st0" d="M9.2,11.3l3.6-2c0.5-0.3,0.7-0.9,0.4-1.5c-0.2-0.4-0.6-0.6-0.9-0.6c-0.2,0-0.4,0-0.5,0.1l-3.6,2
		C8,9.1,7.8,8.9,7.5,8.8C6.8,8.2,5.9,7.9,4.9,7.9c-2.5,0-4.4,2-4.4,4.4c0,2.5,2,4.4,4.4,4.4c2.5,0,4.4-2,4.4-4.4c0,0,0-0.1,0-0.1
		C9.4,11.9,9.3,11.6,9.2,11.3z"/>
</g>
</svg>
