<?xml version="1.0" encoding="utf-8"?>
<!-- Generator: Adobe Illustrator 25.2.1, SVG Export Plug-In . SVG Version: 6.00 Build 0)  -->
<svg version="1.1" id="图层_1" xmlns="http://www.w3.org/2000/svg" xmlns:xlink="http://www.w3.org/1999/xlink" x="0px" y="0px"
	 viewBox="0 0 17 17" style="enable-background:new 0 0 17 17;" xml:space="preserve">
<style type="text/css">
	.st0{fill:#81ED18;}
</style>
<g>
	<path class="st0" d="M8.5,12.9L8.5,12.9c-2.1,0-4.1-0.2-5.6-0.4c-0.5-0.1-1.3-0.2-2-0.6l0,3.1c0,0.8,3.3,1.4,7.5,1.4c0,0,0,0,0.1,0
		c4.2,0,7.5-0.7,7.5-1.5l0-3.1c-0.7,0.3-1.5,0.5-2,0.6C12.6,12.7,10.6,12.9,8.5,12.9z"/>
	<path class="st0" d="M8.5,8L8.5,8C6.4,8,4.4,7.9,2.9,7.6C2.5,7.5,1.7,7.4,1,7c0,0,0,0,0,0l0,3.1c0,0.8,3.3,1.4,7.5,1.4
		c0,0,0,0,0.1,0c4.2,0,7.5-0.7,7.5-1.5L16,7c0,0,0,0,0,0c-0.7,0.3-1.5,0.5-2,0.6C12.6,7.9,10.6,8,8.5,8z"/>
	<path class="st0" d="M8.5,6.8C8.5,6.8,8.5,6.8,8.5,6.8c4.2,0,7.6-0.7,7.6-1.5l0-3.1c0-0.8-3.3-1.4-7.5-1.4c0,0,0,0-0.1,0
		C4.3,0.8,1,1.4,1,2.2l0,3.1C1,6.1,4.3,6.8,8.5,6.8z"/>
</g>
</svg>
