<?xml version="1.0" encoding="utf-8"?>
<!-- Generator: Adobe Illustrator 25.2.1, SVG Export Plug-In . SVG Version: 6.00 Build 0)  -->
<svg version="1.1" id="图层_1" xmlns="http://www.w3.org/2000/svg" xmlns:xlink="http://www.w3.org/1999/xlink" x="0px" y="0px"
	 viewBox="0 0 17 17" style="enable-background:new 0 0 17 17;" xml:space="preserve">
<style type="text/css">
	.st0{fill:#CA81EE;}
</style>
<g>
	<path class="st0" d="M16.6,1.6H0.4C0.2,1.6,0.1,1.8,0.1,2v12c0,0.2,0.2,0.3,0.3,0.3H7v1l-1.5,0.9c-0.2,0.1-0.1,0.2,0.1,0.2h5.9
		c0.2,0,0.2-0.1,0.1-0.2l-1.5-1v-1h6.6c0.2,0,0.3-0.2,0.3-0.3V2C16.9,1.8,16.8,1.6,16.6,1.6z M15.5,10.9c0,0.2-0.2,0.3-0.3,0.3H1.8
		c-0.2,0-0.3-0.2-0.3-0.3V3.4C1.5,3.2,1.6,3,1.8,3h13.4c0.2,0,0.3,0.2,0.3,0.3V10.9z"/>
</g>
</svg>
